# xmcd
#
# Track frame offsets:
#	150
#	12850
#	23737
#	35612
#	46875
#	58687
#	69675
#	80422
#	90422
#	104877
#	116615
#	128650
#	141190
#	152332
#	165235
#	178385
#	192262
#	206022
#	219030
#	234482
#	245240
#	258845
#	271487
#	285520
#
# Disc length: 3973 seconds
#
# Revision: 1
# Processed by: cddbd v1.5.2PL0 Copyright (c) Steve Scherf et al.
# Submitted via: audiograbber 1.83.01
#
DISCID=500f8318
DTITLE=Various Artist - Stompin' 19: Country Blues Pounders
DYEAR=1999
DGENRE=Blues
TTITLE0=Little Joe - Keep Your Arms Around Me
TTITLE1=Leroy Dallas and His Guitar - Jump Little Children Jump
TTITLE2=Little Sam Davis - Goin' To New Orleans
TTITLE3=L. C. Green - The Sun Was Shining
TTITLE4=Freddy King - That's What You Think
TTITLE5=Harmonica Harris - Blues King Mango
TTITLE6=Henry Smith - Good Rocking Mama
TTITLE7=J. and J. Deuces - Little Woman Blues
TTITLE8=Eddie Burns - Hello Miss Jessie Lee
TTITLE9=Buddy Lewis - You've Got Good Business
TTITLE10=Albert and Charles - Weird
TTITLE11=Big Joe Williams - Stack O' Dollars
TTITLE12=Sonny Boy Williams - Alice Mae Blues
TTITLE13=Harvey Hill Jr. - She Fool Me
TTITLE14=Joe Hill Louis - Joe's Jump
TTITLE15=Jesse Belvin (Bud Harper) - Going Away Baby
TTITLE16=Sonny Boy Williamson - Bring Another Half A Pint
TTITLE17=Juke Boy Barner - Rock With Me Baby
TTITLE18=Clifford King - Want To Jump With You Baby
TTITLE19=Jesse Pipkin - Work With It
TTITLE20=Emright - One Of These Days
TTITLE21=The Richard Brothers - Drunk Drivers Coming
TTITLE22=John Lee - Down At The Depot
TTITLE23=John Lee - Alabama Boogie
EXTD=
EXTT0=
EXTT1=
EXTT2=
EXTT3=
EXTT4=
EXTT5=
EXTT6=
EXTT7=
EXTT8=
EXTT9=
EXTT10=
EXTT11=
EXTT12=
EXTT13=
EXTT14=
EXTT15=
EXTT16=
EXTT17=
EXTT18=
EXTT19=
EXTT20=
EXTT21=
EXTT22=
EXTT23=
PLAYORDER=
